<?xml version="1.0" encoding="UTF-8" standalone="no"?>
<!DOCTYPE svg PUBLIC "-//W3C//DTD SVG 1.1//EN"
 "http://www.w3.org/Graphics/SVG/1.1/DTD/svg11.dtd">
<!-- Generated by graphviz version 2.26.3 (20100126.1600)
 -->
<!-- Title: _anonymous_0 Pages: 1 -->
<svg width="512pt" height="1478pt"
 viewBox="0.00 0.00 512.00 1478.00" xmlns="http://www.w3.org/2000/svg" xmlns:xlink="http://www.w3.org/1999/xlink">
<g id="graph1" class="graph" transform="scale(1 1) rotate(0) translate(4 1474)">
<title>_anonymous_0</title>
<polygon fill="white" stroke="white" points="-4,5 -4,-1474 509,-1474 509,5 -4,5"/>
<text text-anchor="middle" x="252" y="-1451.6" font-family="Sans" font-size="16.00"> Jobs on http://jenkins.paneris.net/</text>
<g id="graph2" class="cluster"><title>cluster_view</title>
<polygon fill="none" stroke="blue" points="240,-8 240,-1410 496,-1410 496,-8 240,-8"/>
</g>
<!-- http&#45;status&#45;generator.git\n** -->
<g id="node1" class="node"><title>http&#45;status&#45;generator.git\n**</title>
<a xlink:href="http-status-generator.git" xlink:title="http&#45;status&#45;generator.git\n**">
<ellipse fill="none" stroke="black" cx="106" cy="-1420" rx="94.7523" ry="22.6274"/>
<text text-anchor="middle" x="106" y="-1423.9" font-family="Sans" font-size="9.00">http&#45;status&#45;generator.git</text>
<text text-anchor="middle" x="106" y="-1411.9" font-family="Sans" font-size="9.00">**</text>
</a>
</g>
<!-- httpstatus -->
<g id="node16" class="node"><title>httpstatus</title>
<a xlink:href="http://jenkins.paneris.net/job/httpstatus/" xlink:title="httpstatus">
<polygon fill="none" stroke="grey" points="348,-1402 282,-1402 282,-1366 348,-1366 348,-1402"/>
<text text-anchor="middle" x="315" y="-1381.9" font-family="Sans" font-size="9.00" fill="grey">httpstatus</text>
</a>
</g>
<!-- http&#45;status&#45;generator.git\n**&#45;&gt;httpstatus -->
<g id="edge6" class="edge"><title>http&#45;status&#45;generator.git\n**&#45;&gt;httpstatus</title>
<path fill="none" stroke="black" d="M182.341,-1406.85C212.472,-1401.66 245.979,-1395.89 271.78,-1391.44"/>
<polygon fill="black" stroke="black" points="272.715,-1394.84 281.976,-1389.69 271.527,-1387.94 272.715,-1394.84"/>
</g>
<!-- htmlparser.git\n** -->
<g id="node2" class="node"><title>htmlparser.git\n**</title>
<a xlink:href="htmlparser.git" xlink:title="htmlparser.git\n**">
<ellipse fill="none" stroke="black" cx="106" cy="-1358" rx="57.9828" ry="22.6274"/>
<text text-anchor="middle" x="106" y="-1361.9" font-family="Sans" font-size="9.00">htmlparser.git</text>
<text text-anchor="middle" x="106" y="-1349.9" font-family="Sans" font-size="9.00">**</text>
</a>
</g>
<!-- htmlparser -->
<g id="node18" class="node"><title>htmlparser</title>
<a xlink:href="http://jenkins.paneris.net/job/htmlparser/" xlink:title="htmlparser">
<polygon fill="none" stroke="blue" points="349,-1348 281,-1348 281,-1312 349,-1312 349,-1348"/>
<text text-anchor="middle" x="315" y="-1327.9" font-family="Sans" font-size="9.00">htmlparser</text>
</a>
</g>
<!-- htmlparser.git\n**&#45;&gt;htmlparser -->
<g id="edge8" class="edge"><title>htmlparser.git\n**&#45;&gt;htmlparser</title>
<path fill="none" stroke="black" d="M160.912,-1350.64C195.18,-1346.05 238.709,-1340.22 270.755,-1335.93"/>
<polygon fill="black" stroke="black" points="271.283,-1339.39 280.729,-1334.59 270.353,-1332.45 271.283,-1339.39"/>
</g>
<!-- casutils.git\n** -->
<g id="node3" class="node"><title>casutils.git\n**</title>
<a xlink:href="casutils.git" xlink:title="casutils.git\n**">
<ellipse fill="none" stroke="black" cx="106" cy="-1296" rx="48.0833" ry="22.6274"/>
<text text-anchor="middle" x="106" y="-1299.9" font-family="Sans" font-size="9.00">casutils.git</text>
<text text-anchor="middle" x="106" y="-1287.9" font-family="Sans" font-size="9.00">**</text>
</a>
</g>
<!-- casutils -->
<g id="node30" class="node"><title>casutils</title>
<a xlink:href="http://jenkins.paneris.net/job/casutils/" xlink:title="casutils">
<polygon fill="none" stroke="grey" points="342,-1294 288,-1294 288,-1258 342,-1258 342,-1294"/>
<text text-anchor="middle" x="315" y="-1273.9" font-family="Sans" font-size="9.00" fill="grey">casutils</text>
</a>
</g>
<!-- casutils.git\n**&#45;&gt;casutils -->
<g id="edge20" class="edge"><title>casutils.git\n**&#45;&gt;casutils</title>
<path fill="none" stroke="black" d="M153.164,-1291.49C190.807,-1287.88 242.825,-1282.91 277.624,-1279.58"/>
<polygon fill="black" stroke="black" points="278.215,-1283.04 287.836,-1278.6 277.548,-1276.07 278.215,-1283.04"/>
</g>
<!-- authorised&#45;cas&#45;proxy.git\n** -->
<g id="node4" class="node"><title>authorised&#45;cas&#45;proxy.git\n**</title>
<a xlink:href="authorised-cas-proxy.git" xlink:title="authorised&#45;cas&#45;proxy.git\n**">
<ellipse fill="none" stroke="black" cx="106" cy="-1234" rx="90.0096" ry="22.6274"/>
<text text-anchor="middle" x="106" y="-1237.9" font-family="Sans" font-size="9.00">authorised&#45;cas&#45;proxy.git</text>
<text text-anchor="middle" x="106" y="-1225.9" font-family="Sans" font-size="9.00">**</text>
</a>
</g>
<!-- authorised&#45;cas&#45;proxy -->
<g id="node22" class="node"><title>authorised&#45;cas&#45;proxy</title>
<a xlink:href="http://jenkins.paneris.net/job/authorised-cas-proxy/" xlink:title="authorised&#45;cas&#45;proxy">
<polygon fill="none" stroke="blue" points="372,-1240 258,-1240 258,-1204 372,-1204 372,-1240"/>
<text text-anchor="middle" x="315" y="-1219.9" font-family="Sans" font-size="9.00">authorised&#45;cas&#45;proxy</text>
</a>
</g>
<!-- authorised&#45;cas&#45;proxy.git\n**&#45;&gt;authorised&#45;cas&#45;proxy -->
<g id="edge12" class="edge"><title>authorised&#45;cas&#45;proxy.git\n**&#45;&gt;authorised&#45;cas&#45;proxy</title>
<path fill="none" stroke="black" d="M194.332,-1228.93C211.953,-1227.92 230.204,-1226.87 247.012,-1225.9"/>
<polygon fill="black" stroke="black" points="247.49,-1229.38 257.273,-1225.31 247.089,-1222.39 247.49,-1229.38"/>
</g>
<!-- maven&#45;schemaspy&#45;plugin.git\n** -->
<g id="node5" class="node"><title>maven&#45;schemaspy&#45;plugin.git\n**</title>
<a xlink:href="maven-schemaspy-plugin.git" xlink:title="maven&#45;schemaspy&#45;plugin.git\n**">
<ellipse fill="none" stroke="black" cx="106" cy="-1172" rx="104.86" ry="22.6274"/>
<text text-anchor="middle" x="106" y="-1175.9" font-family="Sans" font-size="9.00">maven&#45;schemaspy&#45;plugin.git</text>
<text text-anchor="middle" x="106" y="-1163.9" font-family="Sans" font-size="9.00">**</text>
</a>
</g>
<!-- maven&#45;schemaspy&#45;plugin -->
<g id="node14" class="node"><title>maven&#45;schemaspy&#45;plugin</title>
<a xlink:href="http://jenkins.paneris.net/job/maven-schemaspy-plugin/" xlink:title="maven&#45;schemaspy&#45;plugin">
<polygon fill="none" stroke="grey" points="382,-1186 248,-1186 248,-1150 382,-1150 382,-1186"/>
<text text-anchor="middle" x="315" y="-1165.9" font-family="Sans" font-size="9.00" fill="grey">maven&#45;schemaspy&#45;plugin</text>
</a>
</g>
<!-- maven&#45;schemaspy&#45;plugin.git\n**&#45;&gt;maven&#45;schemaspy&#45;plugin -->
<g id="edge4" class="edge"><title>maven&#45;schemaspy&#45;plugin.git\n**&#45;&gt;maven&#45;schemaspy&#45;plugin</title>
<path fill="none" stroke="black" d="M211.112,-1169.99C220.099,-1169.82 229.079,-1169.64 237.788,-1169.48"/>
<polygon fill="black" stroke="black" points="237.939,-1172.98 247.87,-1169.28 237.805,-1165.98 237.939,-1172.98"/>
</g>
<!-- arraystack.git\n** -->
<g id="node6" class="node"><title>arraystack.git\n**</title>
<a xlink:href="arraystack.git" xlink:title="arraystack.git\n**">
<ellipse fill="none" stroke="black" cx="106" cy="-1110" rx="56.7776" ry="22.6274"/>
<text text-anchor="middle" x="106" y="-1113.9" font-family="Sans" font-size="9.00">arraystack.git</text>
<text text-anchor="middle" x="106" y="-1101.9" font-family="Sans" font-size="9.00">**</text>
</a>
</g>
<!-- arraystack -->
<g id="node20" class="node"><title>arraystack</title>
<a xlink:href="http://jenkins.paneris.net/job/arraystack/" xlink:title="arraystack">
<polygon fill="none" stroke="yellow" points="348,-1132 282,-1132 282,-1096 348,-1096 348,-1132"/>
<text text-anchor="middle" x="315" y="-1111.9" font-family="Sans" font-size="9.00">arraystack</text>
</a>
</g>
<!-- arraystack.git\n**&#45;&gt;arraystack -->
<g id="edge10" class="edge"><title>arraystack.git\n**&#45;&gt;arraystack</title>
<path fill="none" stroke="black" d="M163.663,-1111.1C197.858,-1111.76 240.489,-1112.57 271.782,-1113.17"/>
<polygon fill="black" stroke="black" points="271.866,-1116.68 281.931,-1113.37 272,-1109.68 271.866,-1116.68"/>
</g>
<!-- JCLU.git\n** -->
<g id="node7" class="node"><title>JCLU.git\n**</title>
<a xlink:href="JCLU.git" xlink:title="JCLU.git\n**">
<ellipse fill="none" stroke="black" cx="106" cy="-1048" rx="34.8574" ry="22.6274"/>
<text text-anchor="middle" x="106" y="-1051.9" font-family="Sans" font-size="9.00">JCLU.git</text>
<text text-anchor="middle" x="106" y="-1039.9" font-family="Sans" font-size="9.00">**</text>
</a>
</g>
<!-- JCLU -->
<g id="node28" class="node"><title>JCLU</title>
<a xlink:href="http://jenkins.paneris.net/job/JCLU/" xlink:title="JCLU">
<polygon fill="none" stroke="blue" points="342,-1078 288,-1078 288,-1042 342,-1042 342,-1078"/>
<text text-anchor="middle" x="315" y="-1057.9" font-family="Sans" font-size="9.00">JCLU</text>
</a>
</g>
<!-- JCLU.git\n**&#45;&gt;JCLU -->
<g id="edge18" class="edge"><title>JCLU.git\n**&#45;&gt;JCLU</title>
<path fill="none" stroke="black" d="M141.454,-1050.04C179.245,-1052.21 238.842,-1055.63 277.426,-1057.84"/>
<polygon fill="black" stroke="black" points="277.531,-1061.35 287.715,-1058.43 277.933,-1054.37 277.531,-1061.35"/>
</g>
<!-- unifier.git\n** -->
<g id="node8" class="node"><title>unifier.git\n**</title>
<a xlink:href="unifier.git" xlink:title="unifier.git\n**">
<ellipse fill="none" stroke="black" cx="106" cy="-986" rx="41.9273" ry="22.6274"/>
<text text-anchor="middle" x="106" y="-989.9" font-family="Sans" font-size="9.00">unifier.git</text>
<text text-anchor="middle" x="106" y="-977.9" font-family="Sans" font-size="9.00">**</text>
</a>
</g>
<!-- unifier -->
<g id="node26" class="node"><title>unifier</title>
<a xlink:href="http://jenkins.paneris.net/job/unifier/" xlink:title="unifier">
<polygon fill="none" stroke="blue" points="342,-1024 288,-1024 288,-988 342,-988 342,-1024"/>
<text text-anchor="middle" x="315" y="-1003.9" font-family="Sans" font-size="9.00">unifier</text>
</a>
</g>
<!-- unifier.git\n**&#45;&gt;unifier -->
<g id="edge16" class="edge"><title>unifier.git\n**&#45;&gt;unifier</title>
<path fill="none" stroke="black" d="M147.792,-989.999C185.739,-993.631 241.194,-998.937 277.681,-1002.43"/>
<polygon fill="black" stroke="black" points="277.608,-1005.94 287.896,-1003.41 278.275,-998.97 277.608,-1005.94"/>
</g>
<!-- runtime&#45;graph.git\n** -->
<g id="node9" class="node"><title>runtime&#45;graph.git\n**</title>
<a xlink:href="runtime-graph.git" xlink:title="runtime&#45;graph.git\n**">
<ellipse fill="none" stroke="black" cx="106" cy="-924" rx="68.7979" ry="22.6274"/>
<text text-anchor="middle" x="106" y="-927.9" font-family="Sans" font-size="9.00">runtime&#45;graph.git</text>
<text text-anchor="middle" x="106" y="-915.9" font-family="Sans" font-size="9.00">**</text>
</a>
</g>
<!-- runtime&#45;graph -->
<g id="node24" class="node"><title>runtime&#45;graph</title>
<a xlink:href="http://jenkins.paneris.net/job/runtime-graph/" xlink:title="runtime&#45;graph">
<polygon fill="none" stroke="blue" points="356,-970 274,-970 274,-934 356,-934 356,-970"/>
<text text-anchor="middle" x="315" y="-949.9" font-family="Sans" font-size="9.00">runtime&#45;graph</text>
</a>
</g>
<!-- runtime&#45;graph.git\n**&#45;&gt;runtime&#45;graph -->
<g id="edge14" class="edge"><title>runtime&#45;graph.git\n**&#45;&gt;runtime&#45;graph</title>
<path fill="none" stroke="black" d="M170.127,-932.591C200.051,-936.6 235.193,-941.308 263.371,-945.083"/>
<polygon fill="black" stroke="black" points="263.039,-948.57 273.415,-946.429 263.969,-941.632 263.039,-948.57"/>
</g>
<!-- PyCLU.git\n** -->
<g id="node10" class="node"><title>PyCLU.git\n**</title>
<a xlink:href="PyCLU.git" xlink:title="PyCLU.git\n**">
<ellipse fill="none" stroke="black" cx="106" cy="-862" rx="41.2167" ry="22.6274"/>
<text text-anchor="middle" x="106" y="-865.9" font-family="Sans" font-size="9.00">PyCLU.git</text>
<text text-anchor="middle" x="106" y="-853.9" font-family="Sans" font-size="9.00">**</text>
</a>
</g>
<!-- PyCLU -->
<g id="node12" class="node"><title>PyCLU</title>
<a xlink:href="http://jenkins.paneris.net/job/PyCLU/" xlink:title="PyCLU">
<polygon fill="none" stroke="blue" points="342,-916 288,-916 288,-880 342,-880 342,-916"/>
<text text-anchor="middle" x="315" y="-895.9" font-family="Sans" font-size="9.00">PyCLU</text>
</a>
</g>
<!-- PyCLU.git\n**&#45;&gt;PyCLU -->
<g id="edge2" class="edge"><title>PyCLU.git\n**&#45;&gt;PyCLU</title>
<path fill="none" stroke="black" d="M145.803,-868.856C183.91,-875.42 240.94,-885.243 278.061,-891.637"/>
<polygon fill="black" stroke="black" points="277.522,-895.096 287.971,-893.344 278.711,-888.198 277.522,-895.096"/>
</g>
<!-- Gaboto -->
<g id="node32" class="node"><title>Gaboto</title>
<a xlink:href="http://jenkins.paneris.net/job/Gaboto/" xlink:title="Gaboto">
<polygon fill="none" stroke="blue" points="480,-322 426,-322 426,-286 480,-286 480,-322"/>
<text text-anchor="middle" x="453" y="-301.9" font-family="Sans" font-size="9.00">Gaboto</text>
</a>
</g>
<!-- HudsonBackup -->
<g id="node33" class="node"><title>HudsonBackup</title>
<a xlink:href="http://jenkins.paneris.net/job/HudsonBackup/" xlink:title="HudsonBackup">
<polygon fill="none" stroke="red" points="358,-862 272,-862 272,-826 358,-826 358,-862"/>
<text text-anchor="middle" x="315" y="-841.9" font-family="Sans" font-size="9.00">HudsonBackup</text>
</a>
</g>
<!-- MelatiBoards -->
<g id="node34" class="node"><title>MelatiBoards</title>
<a xlink:href="http://jenkins.paneris.net/job/MelatiBoards/" xlink:title="MelatiBoards">
<polygon fill="none" stroke="red" points="353,-808 277,-808 277,-772 353,-772 353,-808"/>
<text text-anchor="middle" x="315" y="-787.9" font-family="Sans" font-size="9.00">MelatiBoards</text>
</a>
</g>
<!-- MelatiShopping -->
<g id="node35" class="node"><title>MelatiShopping</title>
<a xlink:href="http://jenkins.paneris.net/job/MelatiShopping/" xlink:title="MelatiShopping">
<polygon fill="none" stroke="blue" points="359,-754 271,-754 271,-718 359,-718 359,-754"/>
<text text-anchor="middle" x="315" y="-733.9" font-family="Sans" font-size="9.00">MelatiShopping</text>
</a>
</g>
<!-- bibliomania -->
<g id="node38" class="node"><title>bibliomania</title>
<a xlink:href="http://jenkins.paneris.net/job/bibliomania/" xlink:title="bibliomania">
<polygon fill="none" stroke="red" points="488,-754 418,-754 418,-718 488,-718 488,-754"/>
<text text-anchor="middle" x="453" y="-733.9" font-family="Sans" font-size="9.00">bibliomania</text>
</a>
</g>
<!-- MelatiShopping&#45;&gt;bibliomania -->
<g id="edge23" class="edge"><title>MelatiShopping&#45;&gt;bibliomania</title>
<path fill="none" stroke="black" d="M359.805,-736C375.024,-736 392.04,-736 407.326,-736"/>
<polygon fill="black" stroke="black" points="407.589,-739.5 417.589,-736 407.589,-732.5 407.589,-739.5"/>
</g>
<!-- MelatiSite -->
<g id="node36" class="node"><title>MelatiSite</title>
<a xlink:href="http://jenkins.paneris.net/job/MelatiSite/" xlink:title="MelatiSite">
<polygon fill="none" stroke="blue" points="346,-700 284,-700 284,-664 346,-664 346,-700"/>
<text text-anchor="middle" x="315" y="-679.9" font-family="Sans" font-size="9.00">MelatiSite</text>
</a>
</g>
<!-- atomscraper -->
<g id="node37" class="node"><title>atomscraper</title>
<a xlink:href="http://jenkins.paneris.net/job/atomscraper/" xlink:title="atomscraper">
<polygon fill="none" stroke="blue" points="353,-646 277,-646 277,-610 353,-610 353,-646"/>
<text text-anchor="middle" x="315" y="-625.9" font-family="Sans" font-size="9.00">atomscraper</text>
</a>
</g>
<!-- check_paneris -->
<g id="node39" class="node"><title>check_paneris</title>
<a xlink:href="http://jenkins.paneris.net/job/check_paneris/" xlink:title="check_paneris">
<polygon fill="none" stroke="red" points="357,-592 273,-592 273,-556 357,-556 357,-592"/>
<text text-anchor="middle" x="315" y="-571.9" font-family="Sans" font-size="9.00">check_paneris</text>
</a>
</g>
<!-- dcdm -->
<g id="node40" class="node"><title>dcdm</title>
<a xlink:href="http://jenkins.paneris.net/job/dcdm/" xlink:title="dcdm">
<polygon fill="none" stroke="blue" points="342,-538 288,-538 288,-502 342,-502 342,-538"/>
<text text-anchor="middle" x="315" y="-517.9" font-family="Sans" font-size="9.00">dcdm</text>
</a>
</g>
<!-- hudson&#45;trigger -->
<g id="node41" class="node"><title>hudson&#45;trigger</title>
<a xlink:href="http://jenkins.paneris.net/job/hudson-trigger/" xlink:title="hudson&#45;trigger">
<polygon fill="none" stroke="blue" points="358,-484 272,-484 272,-448 358,-448 358,-484"/>
<text text-anchor="middle" x="315" y="-463.9" font-family="Sans" font-size="9.00">hudson&#45;trigger</text>
</a>
</g>
<!-- melati -->
<g id="node42" class="node"><title>melati</title>
<a xlink:href="http://jenkins.paneris.net/job/melati/" xlink:title="melati">
<polygon fill="none" stroke="red" points="342,-430 288,-430 288,-394 342,-394 342,-430"/>
<text text-anchor="middle" x="315" y="-409.9" font-family="Sans" font-size="9.00">melati</text>
</a>
</g>
<!-- membership -->
<g id="node43" class="node"><title>membership</title>
<a xlink:href="http://jenkins.paneris.net/job/membership/" xlink:title="membership">
<polygon fill="none" stroke="blue" points="352,-376 278,-376 278,-340 352,-340 352,-376"/>
<text text-anchor="middle" x="315" y="-355.9" font-family="Sans" font-size="9.00">membership</text>
</a>
</g>
<!-- ng4j -->
<g id="node44" class="node"><title>ng4j</title>
<a xlink:href="http://jenkins.paneris.net/job/ng4j/" xlink:title="ng4j">
<polygon fill="none" stroke="blue" points="342,-322 288,-322 288,-286 342,-286 342,-322"/>
<text text-anchor="middle" x="315" y="-301.9" font-family="Sans" font-size="9.00">ng4j</text>
</a>
</g>
<!-- ng4j&#45;&gt;Gaboto -->
<g id="edge25" class="edge"><title>ng4j&#45;&gt;Gaboto</title>
<path fill="none" stroke="black" d="M342.264,-304C363.244,-304 392.471,-304 415.63,-304"/>
<polygon fill="black" stroke="black" points="415.792,-307.5 425.792,-304 415.792,-300.5 415.792,-307.5"/>
</g>
<!-- rimauresq -->
<g id="node45" class="node"><title>rimauresq</title>
<a xlink:href="http://jenkins.paneris.net/job/rimauresq/" xlink:title="rimauresq">
<polygon fill="none" stroke="red" points="347,-268 283,-268 283,-232 347,-232 347,-268"/>
<text text-anchor="middle" x="315" y="-247.9" font-family="Sans" font-size="9.00">rimauresq</text>
</a>
</g>
<!-- webmacro -->
<g id="node46" class="node"><title>webmacro</title>
<a xlink:href="http://jenkins.paneris.net/job/webmacro/" xlink:title="webmacro">
<polygon fill="none" stroke="blue" points="347,-214 283,-214 283,-178 347,-178 347,-214"/>
<text text-anchor="middle" x="315" y="-193.9" font-family="Sans" font-size="9.00">webmacro</text>
</a>
</g>
<!-- webmacro_ant -->
<g id="node47" class="node"><title>webmacro_ant</title>
<a xlink:href="http://jenkins.paneris.net/job/webmacro_ant/" xlink:title="webmacro_ant">
<polygon fill="none" stroke="blue" points="357,-160 273,-160 273,-124 357,-124 357,-160"/>
<text text-anchor="middle" x="315" y="-139.9" font-family="Sans" font-size="9.00">webmacro_ant</text>
</a>
</g>
<!-- webserver -->
<g id="node48" class="node"><title>webserver</title>
<a xlink:href="http://jenkins.paneris.net/job/webserver/" xlink:title="webserver">
<polygon fill="none" stroke="blue" points="347,-106 283,-106 283,-70 347,-70 347,-106"/>
<text text-anchor="middle" x="315" y="-85.9" font-family="Sans" font-size="9.00">webserver</text>
</a>
</g>
<!-- wvm -->
<g id="node49" class="node"><title>wvm</title>
<a xlink:href="http://jenkins.paneris.net/job/wvm/" xlink:title="wvm">
<polygon fill="none" stroke="grey" points="342,-52 288,-52 288,-16 342,-16 342,-52"/>
<text text-anchor="middle" x="315" y="-31.9" font-family="Sans" font-size="9.00" fill="grey">wvm</text>
</a>
</g>
</g>
</svg>
