<?xml version="1.0" encoding="UTF-8" standalone="no"?>
<!DOCTYPE svg PUBLIC "-//W3C//DTD SVG 1.1//EN"
 "http://www.w3.org/Graphics/SVG/1.1/DTD/svg11.dtd">
<!-- Generated by graphviz version 2.26.3 (20100126.1600)
 -->
<!-- Title: _anonymous_0 Pages: 1 -->
<svg width="512pt" height="672pt"
 viewBox="0.00 0.00 512.00 672.00" xmlns="http://www.w3.org/2000/svg" xmlns:xlink="http://www.w3.org/1999/xlink">
<g id="graph1" class="graph" transform="scale(1 1) rotate(0) translate(4 668)">
<title>_anonymous_0</title>
<polygon fill="white" stroke="white" points="-4,5 -4,-668 509,-668 509,5 -4,5"/>
<text text-anchor="middle" x="252" y="-645.6" font-family="Sans" font-size="16.00">Jobs on http://jenkins.paneris.net/</text>
<g id="graph2" class="cluster"><title>cluster_view</title>
<polygon fill="none" stroke="black" points="240,-8 240,-628 496,-628 496,-8 240,-8"/>
<text text-anchor="middle" x="368" y="-609.6" font-family="Sans" font-size="16.00">Current</text>
</g>
<!-- arraystack.git\n** -->
<g id="node1" class="node"><title>arraystack.git\n**</title>
<a xlink:href="arraystack.git" xlink:title="arraystack.git\n**">
<ellipse fill="none" stroke="black" cx="106" cy="-594" rx="56.7776" ry="22.6274"/>
<text text-anchor="middle" x="106" y="-597.9" font-family="Sans" font-size="9.00">arraystack.git</text>
<text text-anchor="middle" x="106" y="-585.9" font-family="Sans" font-size="9.00">**</text>
</a>
</g>
<!-- arraystack -->
<g id="node13" class="node"><title>arraystack</title>
<a xlink:href="http://jenkins.paneris.net/job/arraystack/" xlink:title="arraystack">
<polygon fill="none" stroke="yellow" points="348,-592 282,-592 282,-556 348,-556 348,-592"/>
<text text-anchor="middle" x="315" y="-571.9" font-family="Sans" font-size="9.00">arraystack</text>
</a>
</g>
<!-- arraystack.git\n**&#45;&gt;arraystack -->
<g id="edge8" class="edge"><title>arraystack.git\n**&#45;&gt;arraystack</title>
<path fill="none" stroke="black" d="M162.008,-588.64C196.337,-585.355 239.636,-581.212 271.402,-578.172"/>
<polygon fill="black" stroke="black" points="272.082,-581.623 281.703,-577.186 271.415,-574.655 272.082,-581.623"/>
</g>
<!-- htmlparser.git\n** -->
<g id="node2" class="node"><title>htmlparser.git\n**</title>
<a xlink:href="htmlparser.git" xlink:title="htmlparser.git\n**">
<ellipse fill="none" stroke="black" cx="106" cy="-532" rx="57.9828" ry="22.6274"/>
<text text-anchor="middle" x="106" y="-535.9" font-family="Sans" font-size="9.00">htmlparser.git</text>
<text text-anchor="middle" x="106" y="-523.9" font-family="Sans" font-size="9.00">**</text>
</a>
</g>
<!-- htmlparser -->
<g id="node11" class="node"><title>htmlparser</title>
<a xlink:href="http://jenkins.paneris.net/job/htmlparser/" xlink:title="htmlparser">
<polygon fill="none" stroke="blue" points="349,-538 281,-538 281,-502 349,-502 349,-538"/>
<text text-anchor="middle" x="315" y="-517.9" font-family="Sans" font-size="9.00">htmlparser</text>
</a>
</g>
<!-- htmlparser.git\n**&#45;&gt;htmlparser -->
<g id="edge6" class="edge"><title>htmlparser.git\n**&#45;&gt;htmlparser</title>
<path fill="none" stroke="black" d="M163.387,-528.705C197.261,-526.76 239.488,-524.336 270.769,-522.54"/>
<polygon fill="black" stroke="black" points="271.147,-526.024 280.93,-521.956 270.746,-519.035 271.147,-526.024"/>
</g>
<!-- JCLU.git\n** -->
<g id="node3" class="node"><title>JCLU.git\n**</title>
<a xlink:href="JCLU.git" xlink:title="JCLU.git\n**">
<ellipse fill="none" stroke="black" cx="106" cy="-470" rx="34.8574" ry="22.6274"/>
<text text-anchor="middle" x="106" y="-473.9" font-family="Sans" font-size="9.00">JCLU.git</text>
<text text-anchor="middle" x="106" y="-461.9" font-family="Sans" font-size="9.00">**</text>
</a>
</g>
<!-- JCLU -->
<g id="node7" class="node"><title>JCLU</title>
<a xlink:href="http://jenkins.paneris.net/job/JCLU/" xlink:title="JCLU">
<polygon fill="none" stroke="blue" points="342,-484 288,-484 288,-448 342,-448 342,-484"/>
<text text-anchor="middle" x="315" y="-463.9" font-family="Sans" font-size="9.00">JCLU</text>
</a>
</g>
<!-- JCLU.git\n**&#45;&gt;JCLU -->
<g id="edge2" class="edge"><title>JCLU.git\n**&#45;&gt;JCLU</title>
<path fill="none" stroke="black" d="M141.928,-469.312C179.8,-468.588 239.185,-467.451 277.603,-466.716"/>
<polygon fill="black" stroke="black" points="277.916,-470.21 287.847,-466.52 277.782,-463.212 277.916,-470.21"/>
</g>
<!-- maven&#45;schemaspy&#45;plugin.git\n** -->
<g id="node4" class="node"><title>maven&#45;schemaspy&#45;plugin.git\n**</title>
<a xlink:href="maven-schemaspy-plugin.git" xlink:title="maven&#45;schemaspy&#45;plugin.git\n**">
<ellipse fill="none" stroke="black" cx="106" cy="-408" rx="104.86" ry="22.6274"/>
<text text-anchor="middle" x="106" y="-411.9" font-family="Sans" font-size="9.00">maven&#45;schemaspy&#45;plugin.git</text>
<text text-anchor="middle" x="106" y="-399.9" font-family="Sans" font-size="9.00">**</text>
</a>
</g>
<!-- maven&#45;schemaspy&#45;plugin -->
<g id="node15" class="node"><title>maven&#45;schemaspy&#45;plugin</title>
<a xlink:href="http://jenkins.paneris.net/job/maven-schemaspy-plugin/" xlink:title="maven&#45;schemaspy&#45;plugin">
<polygon fill="none" stroke="grey" points="382,-430 248,-430 248,-394 382,-394 382,-430"/>
<text text-anchor="middle" x="315" y="-409.9" font-family="Sans" font-size="9.00" fill="grey">maven&#45;schemaspy&#45;plugin</text>
</a>
</g>
<!-- maven&#45;schemaspy&#45;plugin.git\n**&#45;&gt;maven&#45;schemaspy&#45;plugin -->
<g id="edge10" class="edge"><title>maven&#45;schemaspy&#45;plugin.git\n**&#45;&gt;maven&#45;schemaspy&#45;plugin</title>
<path fill="none" stroke="black" d="M211.112,-410.012C220.099,-410.184 229.079,-410.356 237.788,-410.522"/>
<polygon fill="black" stroke="black" points="237.805,-414.023 247.87,-410.715 237.939,-407.024 237.805,-414.023"/>
</g>
<!-- authorised&#45;cas&#45;proxy.git\n** -->
<g id="node5" class="node"><title>authorised&#45;cas&#45;proxy.git\n**</title>
<a xlink:href="authorised-cas-proxy.git" xlink:title="authorised&#45;cas&#45;proxy.git\n**">
<ellipse fill="none" stroke="black" cx="106" cy="-346" rx="90.0096" ry="22.6274"/>
<text text-anchor="middle" x="106" y="-349.9" font-family="Sans" font-size="9.00">authorised&#45;cas&#45;proxy.git</text>
<text text-anchor="middle" x="106" y="-337.9" font-family="Sans" font-size="9.00">**</text>
</a>
</g>
<!-- authorised&#45;cas&#45;proxy -->
<g id="node9" class="node"><title>authorised&#45;cas&#45;proxy</title>
<a xlink:href="http://jenkins.paneris.net/job/authorised-cas-proxy/" xlink:title="authorised&#45;cas&#45;proxy">
<polygon fill="none" stroke="blue" points="372,-376 258,-376 258,-340 372,-340 372,-376"/>
<text text-anchor="middle" x="315" y="-355.9" font-family="Sans" font-size="9.00">authorised&#45;cas&#45;proxy</text>
</a>
</g>
<!-- authorised&#45;cas&#45;proxy.git\n**&#45;&gt;authorised&#45;cas&#45;proxy -->
<g id="edge4" class="edge"><title>authorised&#45;cas&#45;proxy.git\n**&#45;&gt;authorised&#45;cas&#45;proxy</title>
<path fill="none" stroke="black" d="M194.332,-351.072C211.953,-352.083 230.204,-353.131 247.012,-354.096"/>
<polygon fill="black" stroke="black" points="247.089,-357.606 257.273,-354.686 247.49,-350.618 247.089,-357.606"/>
</g>
<!-- Gaboto -->
<g id="node17" class="node"><title>Gaboto</title>
<a xlink:href="http://jenkins.paneris.net/job/Gaboto/" xlink:title="Gaboto">
<polygon fill="none" stroke="blue" points="342,-322 288,-322 288,-286 342,-286 342,-322"/>
<text text-anchor="middle" x="315" y="-301.9" font-family="Sans" font-size="9.00">Gaboto</text>
</a>
</g>
<!-- MelatiBoards -->
<g id="node18" class="node"><title>MelatiBoards</title>
<a xlink:href="http://jenkins.paneris.net/job/MelatiBoards/" xlink:title="MelatiBoards">
<polygon fill="none" stroke="red" points="353,-268 277,-268 277,-232 353,-232 353,-268"/>
<text text-anchor="middle" x="315" y="-247.9" font-family="Sans" font-size="9.00">MelatiBoards</text>
</a>
</g>
<!-- bibliomania -->
<g id="node20" class="node"><title>bibliomania</title>
<a xlink:href="http://jenkins.paneris.net/job/bibliomania/" xlink:title="bibliomania">
<polygon fill="none" stroke="red" points="488,-214 418,-214 418,-178 488,-178 488,-214"/>
<text text-anchor="middle" x="453" y="-193.9" font-family="Sans" font-size="9.00">bibliomania</text>
</a>
</g>
<!-- MelatiBoards&#45;&gt;bibliomania -->
<g id="edge17" class="edge"><title>MelatiBoards&#45;&gt;bibliomania</title>
<path fill="none" stroke="black" d="M353.808,-234.814C370.759,-228.181 390.737,-220.364 408.306,-213.489"/>
<polygon fill="black" stroke="black" points="409.746,-216.684 417.783,-209.78 407.196,-210.165 409.746,-216.684"/>
</g>
<!-- MelatiShopping -->
<g id="node19" class="node"><title>MelatiShopping</title>
<a xlink:href="http://jenkins.paneris.net/job/MelatiShopping/" xlink:title="MelatiShopping">
<polygon fill="none" stroke="blue" points="359,-214 271,-214 271,-178 359,-178 359,-214"/>
<text text-anchor="middle" x="315" y="-193.9" font-family="Sans" font-size="9.00">MelatiShopping</text>
</a>
</g>
<!-- MelatiShopping&#45;&gt;bibliomania -->
<g id="edge21" class="edge"><title>MelatiShopping&#45;&gt;bibliomania</title>
<path fill="none" stroke="black" d="M359.805,-196C375.024,-196 392.04,-196 407.326,-196"/>
<polygon fill="black" stroke="black" points="407.589,-199.5 417.589,-196 407.589,-192.5 407.589,-199.5"/>
</g>
<!-- melati -->
<g id="node21" class="node"><title>melati</title>
<a xlink:href="http://jenkins.paneris.net/job/melati/" xlink:title="melati">
<polygon fill="none" stroke="red" points="342,-160 288,-160 288,-124 342,-124 342,-160"/>
<text text-anchor="middle" x="315" y="-139.9" font-family="Sans" font-size="9.00">melati</text>
</a>
</g>
<!-- melati&#45;&gt;bibliomania -->
<g id="edge19" class="edge"><title>melati&#45;&gt;bibliomania</title>
<path fill="none" stroke="black" d="M342.264,-152.669C361.149,-160.058 386.716,-170.063 408.525,-178.597"/>
<polygon fill="black" stroke="black" points="407.338,-181.891 417.926,-182.275 409.889,-175.372 407.338,-181.891"/>
</g>
<!-- rimauresq -->
<g id="node22" class="node"><title>rimauresq</title>
<a xlink:href="http://jenkins.paneris.net/job/rimauresq/" xlink:title="rimauresq">
<polygon fill="none" stroke="red" points="485,-106 421,-106 421,-70 485,-70 485,-106"/>
<text text-anchor="middle" x="453" y="-85.9" font-family="Sans" font-size="9.00">rimauresq</text>
</a>
</g>
<!-- melati&#45;&gt;rimauresq -->
<g id="edge15" class="edge"><title>melati&#45;&gt;rimauresq</title>
<path fill="none" stroke="black" d="M342.264,-131.331C361.971,-123.62 388.952,-113.062 411.347,-104.299"/>
<polygon fill="black" stroke="black" points="412.913,-107.445 420.95,-100.541 410.362,-100.926 412.913,-107.445"/>
</g>
<!-- wvm -->
<g id="node25" class="node"><title>wvm</title>
<a xlink:href="http://jenkins.paneris.net/job/wvm/" xlink:title="wvm">
<polygon fill="none" stroke="grey" points="480,-160 426,-160 426,-124 480,-124 480,-160"/>
<text text-anchor="middle" x="453" y="-139.9" font-family="Sans" font-size="9.00" fill="grey">wvm</text>
</a>
</g>
<!-- melati&#45;&gt;wvm -->
<g id="edge13" class="edge"><title>melati&#45;&gt;wvm</title>
<path fill="none" stroke="black" d="M342.264,-142C363.244,-142 392.471,-142 415.63,-142"/>
<polygon fill="black" stroke="black" points="415.792,-145.5 425.792,-142 415.792,-138.5 415.792,-145.5"/>
</g>
<!-- webmacro -->
<g id="node23" class="node"><title>webmacro</title>
<a xlink:href="http://jenkins.paneris.net/job/webmacro/" xlink:title="webmacro">
<polygon fill="none" stroke="blue" points="347,-106 283,-106 283,-70 347,-70 347,-106"/>
<text text-anchor="middle" x="315" y="-85.9" font-family="Sans" font-size="9.00">webmacro</text>
</a>
</g>
<!-- webmacro_ant -->
<g id="node24" class="node"><title>webmacro_ant</title>
<a xlink:href="http://jenkins.paneris.net/job/webmacro_ant/" xlink:title="webmacro_ant">
<polygon fill="none" stroke="blue" points="357,-52 273,-52 273,-16 357,-16 357,-52"/>
<text text-anchor="middle" x="315" y="-31.9" font-family="Sans" font-size="9.00">webmacro_ant</text>
</a>
</g>
<!-- ng4j -->
<g id="node26" class="node"><title>ng4j</title>
<a xlink:href="http://jenkins.paneris.net/job/ng4j/" xlink:title="ng4j">
<polygon fill="none" stroke="blue" points="133,-306 79,-306 79,-270 133,-270 133,-306"/>
<text text-anchor="middle" x="106" y="-285.9" font-family="Sans" font-size="9.00">ng4j</text>
</a>
</g>
<!-- ng4j&#45;&gt;Gaboto -->
<g id="edge23" class="edge"><title>ng4j&#45;&gt;Gaboto</title>
<path fill="none" stroke="black" d="M133.323,-290.092C170.249,-292.919 236.221,-297.969 277.688,-301.144"/>
<polygon fill="black" stroke="black" points="277.432,-304.634 287.67,-301.908 277.967,-297.655 277.432,-304.634"/>
</g>
</g>
</svg>
